<svg width="30" height="39" xmlns="http://www.w3.org/2000/svg">
    <g fill="none" fill-rule="evenodd">
        <path d="M0 15a14.721 14.721 0 002.716 8.41l10.19 14.504c1.017 1.448 3.172 1.448 4.19 0l10.191-14.509A14.708 14.708 0 0030 15c0-8.284-6.716-15-15-15C6.716 0 0 6.716 0 15"
              fill="#FFF" fill-rule="nonzero"/>
        <path d="M14.999 2a13.027 13.027 0 00-7.458 2.332C1.663 8.41.236 16.434 4.35 22.259l10.191 14.505c.22.315.696.315.917 0l10.193-14.51c4.112-5.82 2.683-13.844-3.193-17.922A13.028 13.028 0 0014.999 2z"
              fill="#0AF"/>
        <circle fill="#FFF" cx="15" cy="15" r="6"/>
    </g>
</svg>
