<svg width="132" height="81" viewBox="0 0 132 81" fill="none" xmlns="http://www.w3.org/2000/svg">
<path d="M86.36 3.29001C78.25 3.10001 45.46 2.55001 24 5.21001C23.5182 5.26544 23.0762 5.50397 22.7653 5.87624C22.4545 6.24852 22.2986 6.72604 22.33 7.21001L25.51 62.75H88.22V4.75001C88.22 3.71001 87.39 3.31001 86.36 3.29001Z" fill="#E2DED9"/>
<path d="M7.87 49.72H43.87L44.79 79L10.45 80.3C9.53999 80.3 8.72999 80.3 8.72999 78.71L7.87 49.72Z" fill="#FFCB49"/>
<path d="M7.87002 49.72L0.260022 40C-0.0399778 39.61 -0.269978 39.11 0.720022 39L33.43 37.64C33.8299 37.6289 34.2266 37.7139 34.5868 37.888C34.947 38.062 35.2602 38.3199 35.5 38.64L43.87 49.79L7.87002 49.72Z" fill="#F59800"/>
<path d="M62.07 38.35L50.77 37.15C49.46 37.15 49.25 37.49 48.93 38.21L43.87 49.72L44.79 79L57.79 78C58.7 78 59.36 77.86 59.36 76.28L58 49.72L63.11 40.27C63.52 39.46 63.64 38.54 62.07 38.35Z" fill="#F59800"/>
<path d="M91.77 19.73V62.75H88.22V20.02L91.77 19.73Z" fill="#006999"/>
<path d="M91.77 19.73C91.77 19.73 99.44 19.16 106.27 19.34C106.949 19.3568 107.609 19.5697 108.169 19.9529C108.73 20.3362 109.168 20.8735 109.43 21.5L116.43 38.34C116.644 38.8596 116.981 39.3198 117.411 39.6819C117.841 40.0439 118.352 40.2971 118.9 40.42L128.51 42.56C129.94 42.87 131 43.19 130.87 45.62L130.33 59.47C130.26 61.3 129.26 62.75 125 62.75H91.77V19.73Z" fill="#00B5F8"/>
<path d="M109.61 76C116.26 76 121.65 70.6095 121.65 63.96C121.65 57.3105 116.26 51.92 109.61 51.92C102.961 51.92 97.5701 57.3105 97.5701 63.96C97.5701 70.6095 102.961 76 109.61 76Z" fill="#212721"/>
<path d="M109.61 70.41C108.332 70.412 107.083 70.0343 106.02 69.325C104.957 68.6157 104.129 67.6067 103.64 66.4259C103.152 65.2452 103.025 63.9459 103.276 62.693C103.527 61.4401 104.144 60.29 105.05 59.3885C105.956 58.4871 107.109 57.875 108.363 57.6298C109.617 57.3847 110.915 57.5175 112.094 58.0116C113.272 58.5056 114.277 59.3385 114.982 60.4047C115.686 61.4709 116.058 62.7222 116.05 64C116.037 65.7012 115.353 67.3285 114.147 68.5286C112.942 69.7287 111.311 70.4048 109.61 70.41ZM109.61 59.52C108.731 59.518 107.871 59.7766 107.138 60.2631C106.406 60.7495 105.834 61.4421 105.495 62.2533C105.155 63.0645 105.064 63.958 105.232 64.821C105.4 65.6841 105.82 66.4779 106.439 67.1025C107.058 67.727 107.848 68.1542 108.71 68.33C109.571 68.5059 110.466 68.4227 111.28 68.0907C112.094 67.7588 112.792 67.1931 113.285 66.4651C113.778 65.737 114.044 64.8792 114.05 64C114.055 63.4136 113.944 62.8319 113.724 62.2886C113.503 61.7453 113.177 61.2511 112.764 60.8346C112.351 60.418 111.86 60.0874 111.318 59.8618C110.777 59.6361 110.196 59.52 109.61 59.52Z" fill="#E2DED9"/>
<path d="M110.44 23.94H97.9201C96.2601 23.94 96.2701 24.89 96.2701 26.07V36.38C96.2666 36.9238 96.4723 37.4481 96.8445 37.8446C97.2168 38.241 97.7271 38.4792 98.2701 38.51L117.03 39.36L110.44 23.94Z" fill="#006999"/>
<path d="M131.05 45.62H126.81C126.306 45.62 125.823 45.8202 125.467 46.1765C125.11 46.5328 124.91 47.0161 124.91 47.52C124.911 47.9631 125.067 48.392 125.35 48.7331C125.632 49.0743 126.025 49.3065 126.46 49.39L130.89 50.22L131.05 45.62Z" fill="white"/>
<path d="M40.6801 76.73C40.4545 76.7287 40.236 76.6512 40.0601 76.51L10.8201 53.33C10.6125 53.1665 10.4781 52.9274 10.4463 52.6651C10.4144 52.4027 10.4877 52.1385 10.6501 51.93C10.7311 51.8258 10.8321 51.7387 10.947 51.6737C11.0619 51.6086 11.1886 51.567 11.3197 51.5512C11.4507 51.5354 11.5837 51.5457 11.7107 51.5816C11.8378 51.6174 11.9566 51.678 12.0601 51.76L41.3001 74.94C41.4652 75.0682 41.5861 75.2449 41.6456 75.4453C41.7051 75.6457 41.7003 75.8598 41.6319 76.0573C41.5635 76.2549 41.4349 76.426 41.2641 76.5467C41.0934 76.6673 40.8891 76.7315 40.6801 76.73Z" fill="#F59800"/>
<path d="M12.41 78.14C12.2673 78.1386 12.1265 78.1066 11.9971 78.0462C11.8678 77.9859 11.7528 77.8985 11.66 77.79C11.4852 77.591 11.3965 77.3307 11.4134 77.0664C11.4303 76.802 11.5513 76.5552 11.75 76.38L38.85 52.77C39.0491 52.5952 39.3093 52.5065 39.5737 52.5234C39.838 52.5402 40.0849 52.6613 40.26 52.86C40.3481 52.9588 40.4157 53.0741 40.4589 53.1992C40.5021 53.3243 40.5201 53.4567 40.5117 53.5888C40.5033 53.7209 40.4688 53.85 40.4102 53.9687C40.3515 54.0873 40.2699 54.1931 40.17 54.28L13.07 77.89C12.8877 78.0508 12.6531 78.1397 12.41 78.14Z" fill="#F59800"/>
<path d="M12.89 38.46L16.82 43.66H23.31L19.38 38.19L12.89 38.46Z" fill="#FFCB49"/>
<path d="M58.5195 6C57.812 5.87707 57.1725 5.5252 56.7123 5.00546C56.252 4.48573 56 3.83096 56 3.15484C56 2.47873 56.252 1.82396 56.7123 1.30422C57.1725 0.78449 57.812 0.432612 58.5195 0.309686L77.9199 0.00105883C78.3187 -0.00921742 78.7156 0.0553938 79.0874 0.191106C79.4593 0.326818 79.7985 0.5309 80.0853 0.791392C80.3721 1.05188 80.6007 1.36354 80.7576 1.70811C80.9146 2.05267 80.9968 2.4232 80.9994 2.79799C81.0075 3.17118 80.9372 3.5422 80.7924 3.88978C80.6476 4.23736 80.4312 4.55467 80.1556 4.82348C79.88 5.0923 79.5506 5.30734 79.1863 5.45628C78.822 5.60521 78.4301 5.6851 78.0329 5.69137L58.5914 6H58.5195Z" fill="#00B5F8"/>
<path d="M58.9625 6.21999H59.023L78.108 5.89999C78.8429 5.88485 79.546 5.59909 80.0804 5.09825C80.6149 4.59741 80.9427 3.91727 81 3.18999C74.9541 3.09999 65.8851 3.04999 56 3.25999V3.31999C56.0106 4.09278 56.3274 4.83034 56.8818 5.37308C57.4363 5.91581 58.1837 6.22006 58.9625 6.21999Z" fill="#009ED3"/>
</svg>
